<?xml version="1.0" encoding="UTF-8"?>
<!-- Created with Inkscape (http://www.inkscape.org/) -->
<svg width="6.8792mm" height="6.8792mm" version="1.1" viewBox="0 0 6.8792038 6.8792038" xmlns="http://www.w3.org/2000/svg" xmlns:cc="http://creativecommons.org/ns#" xmlns:dc="http://purl.org/dc/elements/1.1/" xmlns:rdf="http://www.w3.org/1999/02/22-rdf-syntax-ns#">
 <metadata>
  <rdf:RDF>
   <cc:Work rdf:about="">
    <dc:format>image/svg+xml</dc:format>
    <dc:type rdf:resource="http://purl.org/dc/dcmitype/StillImage"/>
    <dc:title/>
   </cc:Work>
  </rdf:RDF>
 </metadata>
 <g transform="translate(-57.037 -115.16)">
  <g transform="matrix(1 0 0 1 57.037 115.15)">
   <g transform="translate(-68.19,-99.287)">
    <circle cx="71.629" cy="102.73" r="3.175" fill="#fffeff" stroke="#373737" stroke-linejoin="round" stroke-width=".52917"/>
   </g>
   <g fill="#373737">
    <g style="font-feature-settings:normal;font-variant-caps:normal;font-variant-ligatures:normal;font-variant-numeric:normal" aria-label="V">
     <path d="m2.4292 1.915 1.0254 3.036 1.0285-3.0576q0.080302-0.24091 0.12045-0.33356 0.040151-0.095744 0.13281-0.16987 0.092656-0.077213 0.25326-0.077213 0.11736 0 0.2162 0.058682 0.10192 0.058682 0.15751 0.15751 0.058682 0.095744 0.058682 0.19458 0 0.067948-0.018531 0.14825-0.018531 0.077213-0.046328 0.15443-0.027797 0.074125-0.055594 0.15443l-1.0964 2.9588q-0.058682 0.16987-0.11736 0.3243-0.058682 0.15134-0.1359 0.2687-0.077213 0.11428-0.20693 0.1884-0.12663 0.074125-0.31194 0.074125t-0.31503-0.074125q-0.12663-0.071036-0.20693-0.1884-0.077213-0.12045-0.1359-0.27179-0.058682-0.15134-0.11736-0.32121l-1.0779-2.9341q-0.027797-0.080302-0.058682-0.15751-0.027797-0.077213-0.049416-0.16678-0.018531-0.089567-0.018531-0.15134 0-0.15752 0.12663-0.28723 0.12663-0.12972 0.31812-0.12972 0.23473 0 0.33047 0.14516 0.098833 0.14207 0.20075 0.4571z" fill="#373737" stroke-width=".39533" style="font-feature-settings:normal;font-variant-caps:normal;font-variant-ligatures:normal;font-variant-numeric:normal"/>
    </g>
   </g>
  </g>
 </g>
</svg>
